<?xml version="1.0" encoding="UTF-8"?>
<svg version="1.1" xmlns="http://www.w3.org/2000/svg" width="936" height="541">
<path d="M0 0 C0.81763038 0.00092179 1.63526075 0.00184359 2.47766781 0.00279331 C3.88068645 0.00073132 3.88068645 0.00073132 5.31204891 -0.00137234 C6.34638561 0.00222294 7.38072231 0.00581821 8.44640255 0.00952244 C9.52919491 0.00937641 10.61198727 0.00923038 11.72759151 0.00907993 C15.32585778 0.0097796 18.92407301 0.0175745 22.52233028 0.02539158 C25.00954822 0.02725557 27.49676652 0.02867956 29.98398495 0.0296793 C35.87363594 0.03311433 41.76326794 0.04100506 47.65291113 0.05102879 C55.01367777 0.06328536 62.37444668 0.06866992 69.73522091 0.0742197 C82.87129802 0.08495968 96.00735986 0.10184693 109.14342403 0.12304783 C113.41249858 8.50941183 113.41249858 8.50941183 114.89171505 12.44238377 C115.17669353 13.19342884 115.46167202 13.94447392 115.75528622 14.71827793 C116.04966076 15.50669575 116.3440353 16.29511356 116.64733028 17.10742283 C116.96664013 17.95155231 117.28594997 18.7956818 117.61493587 19.66539097 C118.29578806 21.46622754 118.97481666 23.26775447 119.65215206 25.06991673 C121.44623171 29.84233486 123.25440918 34.60941011 125.06139278 39.37695408 C125.41832211 40.31960621 125.77525143 41.26225834 126.14299679 42.23347569 C128.87831826 49.44880396 131.67480714 56.63713239 134.51842403 63.81054783 C139.33436263 75.98591174 144.02804442 88.20660576 148.70592403 100.43554783 C149.08973232 101.43881107 149.47354061 102.44207432 149.86897945 103.47573948 C152.6287518 110.69088842 155.38622763 117.90691422 158.14342403 125.12304783 C161.12100032 132.91532322 164.09990262 140.70708972 167.08092403 148.49804783 C167.4485989 149.4591547 167.81627377 150.42026157 168.19509029 151.4104929 C174.44674188 167.74734795 180.766664 184.05719217 187.10338497 200.36120701 C192.62012601 214.55985753 198.07062302 228.78130765 203.44295406 243.03518772 C208.4419675 256.29795312 213.53118306 269.52350253 218.66477108 282.73477268 C220.82028766 288.28441458 222.96538872 293.83804669 225.10826778 299.39257908 C232.11127676 317.54347996 239.13024676 335.68783513 246.20592403 353.81054783 C246.52880398 354.63798496 246.85168392 355.4654221 247.18434811 356.31793308 C250.62026558 365.12288123 254.06346738 373.92488714 257.52374935 382.72029209 C259.01849398 386.52107163 260.51018014 390.32304788 262.00154781 394.12515354 C262.71494581 395.94133426 263.42986475 397.75691836 264.14638424 399.57186985 C265.13740637 402.08227406 266.12335827 404.59461541 267.10826778 407.10742283 C267.40224453 407.8481554 267.69622128 408.58888798 267.99910641 409.35206699 C269.3964375 412.93178394 270.45025132 416.34952182 271.14342403 420.12304783 C300.0778252 420.14596584 329.01222546 420.16361145 357.94663392 420.17411316 C361.379174 420.17536355 364.81171406 420.1766579 368.24425411 420.17797947 C368.92747912 420.17824178 369.61070413 420.17850409 370.31463293 420.17877435 C381.31077218 420.18310042 392.30690609 420.19097073 403.3030422 420.20020062 C414.62477639 420.20962304 425.94650667 420.21504679 437.26824504 420.21713632 C443.61116674 420.21842918 449.95407641 420.22142321 456.29699421 420.22877789 C487.84731087 420.32490437 487.84731087 420.32490437 519.38878536 419.69506931 C520.48932342 419.65830869 521.58986147 419.62154806 522.72374916 419.58367348 C545.07392308 418.67473353 567.34501348 412.81265077 583.14342403 396.12304783 C596.22408495 380.36505866 599.55291328 362.07572584 598.14342403 342.12304783 C596.24118552 326.95655154 588.08112715 313.72554529 576.58092403 303.94336033 C558.77417721 290.22595362 538.26726281 287.0172015 516.36192989 286.91772556 C514.99115879 286.90812818 513.62039053 286.89811707 512.24962521 286.88772678 C508.55401336 286.8608729 504.85838901 286.83975869 501.16273475 286.8197248 C497.29100512 286.79774371 493.41931321 286.77041476 489.5476141 286.74366856 C482.22745409 286.69390459 474.90727297 286.64890584 467.58707196 286.60564619 C457.68718606 286.54686371 447.78734988 286.48066517 437.88750839 286.41489601 C422.30618052 286.31157649 406.72480948 286.21811795 391.14342403 286.12304783 C391.14342403 320.44304783 391.14342403 354.76304783 391.14342403 390.12304783 C356.16342403 390.12304783 321.18342403 390.12304783 285.14342403 390.12304783 C285.103121 345.27472697 285.103121 345.27472697 285.09459591 326.5429697 C285.08865235 313.58715515 285.0816491 300.63134708 285.06798458 287.67553806 C285.05803941 278.24170376 285.05157101 268.8078747 285.04933554 259.3740353 C285.04802815 254.37563297 285.0449405 249.37724562 285.03769398 244.37884808 C285.03093639 239.67989773 285.02880654 234.98096863 285.03031635 230.28201389 C285.03003991 228.55215877 285.02803324 226.82230299 285.02421856 225.09245205 C285.01928539 222.7412196 285.02042434 220.39006868 285.02316952 218.03883457 C285.02178683 216.06020593 285.02178683 216.06020593 285.02037621 214.041605 C285.14342403 211.12304783 285.14342403 211.12304783 286.14342403 210.12304783 C289.14968323 210.02149372 292.13318777 209.98594304 295.13999081 209.99174595 C296.09594696 209.98963023 297.05190311 209.98751452 298.03682762 209.98533469 C301.26695109 209.97930358 304.49703583 209.98033709 307.72716427 209.98120213 C310.03305281 209.97817242 312.33894075 209.97465149 314.64482784 209.97067356 C319.62669028 209.96276526 324.60854549 209.9576322 329.59041309 209.9543829 C337.48001839 209.94848037 345.36957837 209.93194378 353.25916195 209.91304111 C355.95984833 209.90668324 358.66053482 209.90037481 361.36122131 209.89406395 C362.03634137 209.89248019 362.71146142 209.89089642 363.40703965 209.88926467 C371.10049603 209.87131117 378.79395551 209.85509748 386.48741817 209.84008884 C387.19090679 209.83871297 387.8943954 209.8373371 388.61920185 209.83591954 C399.97836281 209.81406571 411.33751266 209.803253 422.69669091 209.7957181 C434.3744072 209.78761543 446.05202887 209.76421663 457.72969109 209.72776443 C464.2796437 209.70806368 470.82943044 209.69557901 477.37941456 209.70059872 C483.55594739 209.70527375 489.73216723 209.69128447 495.90863705 209.66358662 C498.16348461 209.6567205 500.41836486 209.65649828 502.6732111 209.66378689 C524.82882226 209.72810989 546.29445723 207.70662851 562.96373653 191.41992283 C563.68303341 190.66195408 564.40233028 189.90398533 565.14342403 189.12304783 C565.80084591 188.44757908 566.45826778 187.77211033 567.13561153 187.07617283 C578.54316702 174.05295498 579.00746561 155.53321676 578.14342403 139.12304783 C576.51707179 124.96333883 569.79801894 111.62027459 559.14342403 102.12304783 C543.08000236 89.96823321 525.33804164 86.01468391 505.5987463 85.91772556 C504.34926708 85.90782597 503.09978786 85.89792637 501.81244564 85.88772678 C498.40388318 85.86164125 494.99534285 85.83973746 491.58674264 85.8197248 C488.01795997 85.79777224 484.4492186 85.77042915 480.88046932 85.74366856 C474.13044174 85.69386646 467.38039107 85.64888162 460.63031858 85.60564619 C451.5033537 85.54690622 442.37644325 85.48068685 433.24952698 85.41489601 C418.88086273 85.31151673 404.51215138 85.21809782 390.14342403 85.12304783 C390.14342403 110.20304783 390.14342403 135.28304783 390.14342403 161.12304783 C355.49342403 161.12304783 320.84342403 161.12304783 285.14342403 161.12304783 C285.103121 121.03944124 285.103121 121.03944124 285.09459591 104.29687595 C285.08865251 92.71720025 285.0816497 81.13753179 285.06798458 69.55786228 C285.05803895 61.12604452 285.0515709 52.69423262 285.04933554 44.26240915 C285.04802823 39.7949739 285.04494108 35.32755543 285.03769398 30.86012554 C285.03093566 26.66020623 285.02880669 22.4603107 285.03031635 18.26038647 C285.03003994 16.71436274 285.0280337 15.16833827 285.02421856 13.62231922 C285.01928423 11.52069007 285.02042476 9.41915211 285.02316952 7.3175211 C285.02178683 5.54906126 285.02178683 5.54906126 285.02037621 3.74487495 C285.14342403 1.12304783 285.14342403 1.12304783 286.14342403 0.12304783 C287.48290636 0.02404325 288.82755425 -0.00617433 290.17068863 -0.00837994 C291.48017266 -0.01414165 291.48017266 -0.01414165 292.81611091 -0.02001977 C293.78629053 -0.01915329 294.75647015 -0.01828681 295.75604916 -0.01739407 C296.77845359 -0.02036519 297.80085802 -0.02333631 298.85424441 -0.02639747 C302.30977657 -0.03512789 305.76527427 -0.03659648 309.22081661 -0.03808498 C311.6878177 -0.04271078 314.15481806 -0.04773512 316.62181759 -0.05313015 C323.35276392 -0.06629541 330.08369666 -0.07274636 336.81465268 -0.07714081 C341.02791453 -0.07990434 345.24117409 -0.08414253 349.45443439 -0.08864498 C361.14243107 -0.10085399 372.83042589 -0.11114212 384.5184288 -0.11452007 C385.26759081 -0.11473964 386.01675281 -0.11495921 386.7886167 -0.11518542 C387.91498286 -0.11551284 387.91498286 -0.11551284 389.0641039 -0.11584687 C390.58557975 -0.11629033 392.10705561 -0.11673689 393.62853146 -0.11718655 C394.38322803 -0.11740798 395.1379246 -0.11762941 395.91549077 -0.11785755 C408.07624196 -0.12178435 420.23693244 -0.13916561 432.39766029 -0.16254607 C444.91384688 -0.18641267 457.43000329 -0.19872923 469.94621295 -0.19988799 C476.96037126 -0.20079754 483.97445101 -0.20636291 490.98858738 -0.2247076 C497.61320149 -0.2419723 504.237695 -0.24324858 510.86233425 -0.2345686 C513.27102654 -0.23380827 515.67972738 -0.23800491 518.08839893 -0.24802685 C562.18981134 -0.42047959 607.42645666 5.70264342 642.14342403 35.12304783 C643.65162716 36.38568455 643.65162716 36.38568455 645.19029903 37.67382908 C667.68578844 57.06298861 681.59103038 84.18175506 684.96251583 113.66699314 C687.46350094 147.62098807 683.53303156 182.10511199 660.94811153 209.08398533 C658.77296861 211.54161435 656.52455706 213.86402419 654.14342403 216.12304783 C653.64584591 216.65285252 653.14826778 217.1826572 652.63561153 217.72851658 C645.64907103 225.08875576 637.43833993 230.12059847 628.58092403 234.93554783 C627.88499142 235.32081638 627.1890588 235.70608494 626.47203732 236.1030283 C621.48849038 238.74027693 616.69200403 240.15980332 611.14342403 241.12304783 C611.14342403 241.78304783 611.14342403 242.44304783 611.14342403 243.12304783 C612.31904903 243.30867283 613.49467403 243.49429783 614.70592403 243.68554783 C621.35599044 245.15401675 627.32545746 248.27549141 633.39537716 251.26660252 C634.89135522 251.99954819 636.39912896 252.70833402 637.90904903 253.41211033 C658.65868731 263.25145493 677.10841433 279.59708816 689.14342403 299.12304783 C689.66911983 299.97092869 689.66911983 299.97092869 690.20543575 300.83593845 C702.99622915 321.85317574 707.56852848 347.75261253 706.14342403 372.12304783 C706.10088497 372.87731052 706.05834591 373.63157322 706.01451778 374.40869236 C703.62925401 412.07598285 689.57852033 444.80839011 661.14342403 470.12304783 C638.17986933 489.18114618 609.58150505 499.62158369 580.64342403 505.37304783 C579.89915157 505.52419041 579.15487911 505.67533298 578.38805294 505.83105564 C557.96073286 509.61025915 537.2903456 509.40742726 516.60874164 509.35517907 C512.25528729 509.34643363 507.90183772 509.34947246 503.54837704 509.35098362 C496.03001816 509.35202555 488.51169436 509.34582196 480.99334431 509.33450794 C470.12346234 509.31816113 459.25359709 509.31303561 448.38370416 509.31053196 C430.74232191 509.30616916 413.10095829 509.29289871 395.45958614 509.27392673 C378.33621469 509.25553113 361.21284832 509.2413927 344.08946896 509.23291111 C343.03161572 509.23238566 341.97376249 509.23186022 340.8838531 509.23131885 C335.57620709 509.22870852 330.26856104 509.22618116 324.96091497 509.22369504 C281.02173843 509.20300666 237.0825822 509.16781998 193.14342403 509.12304783 C192.18875658 506.91459016 191.23600087 504.7053393 190.28429317 502.49560642 C190.01700657 501.87781818 189.74971996 501.26002995 189.47433376 500.62352085 C186.94484165 494.7430893 184.73987389 488.771943 182.58092403 482.74804783 C181.63903846 480.14959429 180.6954929 477.55181315 179.74889278 474.95507908 C179.35227947 473.86676037 179.35227947 473.86676037 178.94765377 472.75645542 C173.62501106 458.19482114 168.1233614 443.69854281 162.66857052 429.18603611 C162.22599407 428.00797901 161.78341763 426.82992191 161.32742977 425.61616611 C160.50464138 423.42631213 159.68130763 421.23666291 158.85724545 419.04728794 C155.24017676 409.42207849 151.69840017 399.77226877 148.14342403 390.12304783 C85.11342403 389.79304783 22.08342403 389.46304783 -42.85657597 389.12304783 C-43.84657597 392.42304783 -44.83657597 395.72304783 -45.85657597 399.12304783 C-46.57949437 401.26048333 -47.32063429 403.39191173 -48.08631229 405.51440525 C-48.50183857 406.67038212 -48.91736485 407.82635899 -49.34548283 409.01736546 C-49.78871387 410.24204533 -50.23194492 411.4667252 -50.68860722 412.72851658 C-51.16247318 414.04393167 -51.636095 415.35943474 -52.10949039 416.67501926 C-53.36727204 420.16847733 -54.62821459 423.66078616 -55.88985538 427.15285206 C-57.19465453 430.7658978 -58.4967368 434.3799222 -59.79895878 437.99389744 C-61.35772461 442.31947956 -62.91667411 446.64499466 -64.47690678 450.97004795 C-67.45743235 459.23309497 -70.42811091 467.49955585 -73.38391972 475.77148533 C-73.87581539 477.14706356 -73.87581539 477.14706356 -74.37764835 478.55043125 C-76.17071136 483.56482781 -76.17071136 483.56482781 -77.9597559 488.58065891 C-78.74115534 490.77386387 -79.52515498 492.96612313 -80.30970097 495.15820408 C-80.73412479 496.34808933 -81.15854862 497.53797459 -81.59583378 498.76391697 C-82.90780237 502.25953584 -84.38579435 505.69122406 -85.85657597 509.12304783 C-122.15657597 509.12304783 -158.45657597 509.12304783 -195.85657597 509.12304783 C-195.18662198 505.7732779 -194.62542287 503.22749418 -193.42054081 500.151124 C-192.98186428 499.02161823 -192.98186428 499.02161823 -192.5343256 497.86929417 C-192.2152776 497.05971256 -191.89622959 496.25013096 -191.56751347 495.41601658 C-191.23247303 494.55551701 -190.89743259 493.69501743 -190.55223942 492.80844212 C-189.82782855 490.94840406 -189.10170632 489.0890318 -188.37406254 487.23025608 C-186.4223644 482.2425483 -184.48509982 477.24924542 -182.54798222 472.25586033 C-182.15231556 471.23643848 -181.7566489 470.21701664 -181.34899235 469.16670322 C-177.55125495 459.36608588 -173.84594227 449.53203804 -170.16907597 439.68554783 C-169.55045067 438.03026428 -168.93179832 436.37499085 -168.31311893 434.71972752 C-167.39454584 432.26174509 -166.47606429 429.80372873 -165.55793095 427.34558201 C-162.34376872 418.74315605 -159.10557849 410.1498701 -155.85657597 401.56054783 C-155.42562626 400.42123814 -155.42562626 400.42123814 -154.9859705 399.25891209 C-150.28259882 386.83186632 -145.52067406 374.42780092 -140.7417078 362.02966404 C-132.85445904 341.56392344 -125.07744727 321.05645194 -117.29602909 300.55029392 C-113.71358661 291.11036853 -110.12610807 281.6723572 -106.53894901 272.23422337 C-105.35622436 269.12212264 -104.17374309 266.00992955 -102.99134159 262.89770603 C-99.39355828 253.42816418 -95.79473503 243.95902266 -92.19147587 234.49156284 C-90.16257894 229.16061822 -88.13437942 223.82940848 -86.10657597 218.49804783 C-85.51108952 216.93248646 -85.51108952 216.93248646 -84.90357304 215.33529758 C-79.59829144 201.38338292 -74.33332812 187.41705367 -69.10657597 173.43554783 C-62.78858432 156.53762854 -56.33371225 139.69480968 -49.83887577 122.86419773 C-46.24822883 113.55457139 -42.68557784 104.23425233 -39.12110233 94.91458225 C-30.37630727 72.05328982 -21.579822 49.21224502 -12.73468876 26.38958836 C-11.91020009 24.26145971 -11.08658281 22.13299638 -10.26331425 20.00439548 C-8.9639681 16.64697706 -7.66122708 13.29090758 -6.35657597 9.93554783 C-6.00071415 9.0151572 -5.64485233 8.09476658 -5.27820683 7.14648533 C-2.55502656 0.16933887 -2.55502656 0.16933887 0 0 Z M51.14342403 117.12304783 C50.79114742 118.15014866 50.79114742 118.15014866 50.43175411 119.197999 C45.06195344 134.84158078 39.63252214 150.46293807 34.14064693 166.06405735 C29.93976346 177.99845242 25.75999277 189.94002319 21.5966711 201.8875742 C16.6455695 216.09544151 11.68900016 230.30135931 6.70592403 244.49804783 C6.45049831 245.226348 6.19507259 245.95464817 5.9319067 246.70501804 C2.58044564 256.25759863 -0.8088526 265.79608829 -4.22376347 275.32617283 C-4.96935484 277.41029589 -5.71487921 279.49444293 -6.46033573 281.57861423 C-7.91123691 285.63490997 -9.36842099 289.68887635 -10.82898808 293.74170017 C-11.49076167 295.59008651 -12.15231266 297.43855256 -12.81360722 299.28711033 C-13.12228733 300.13839512 -13.43096745 300.98967991 -13.7490015 301.86676121 C-14.02789219 302.64952427 -14.30678288 303.43228733 -14.59412479 304.23877048 C-14.83915241 304.91992924 -15.08418003 305.60108799 -15.33663273 306.30288792 C-15.99391151 308.28832249 -15.99391151 308.28832249 -15.85657597 311.12304783 C28.36342403 311.12304783 72.58342403 311.12304783 118.14342403 311.12304783 C116.83330704 305.22752137 115.48642845 299.75196154 113.51842403 294.10351658 C113.25954403 293.34784901 113.00066402 292.59218143 112.73393917 291.81361485 C111.87514772 289.31094369 111.00934956 286.81075865 110.14342403 284.31054783 C109.52748555 282.520639 108.91193566 280.73059641 108.29674435 278.94043064 C106.61358085 274.04772579 104.92362633 269.15739402 103.2315588 264.26776218 C102.11478404 261.04027811 100.99910188 257.81241801 99.88365841 254.58447361 C95.64763867 242.32762056 91.4045864 230.07321296 87.15762997 217.82014561 C82.80415044 205.25972715 78.457574 192.69704365 74.14342403 180.12304783 C73.72319973 178.89878086 73.72319973 178.89878086 73.29448605 177.64978123 C71.32412328 171.9082974 69.35723855 166.16563417 67.39351559 160.42187595 C66.74062039 158.51309736 66.08702641 156.60455759 65.43263912 154.69629002 C61.15742259 142.22532115 57.05425473 129.71317823 53.14342403 117.12304783 C52.48342403 117.12304783 51.82342403 117.12304783 51.14342403 117.12304783 Z " fill="#FCFCFC" transform="translate(217.85657596588135,11.876952171325684)"/>
</svg>
