<svg xmlns="http://www.w3.org/2000/svg" width="936" height="541"><path d="m217.857 11.877 2.477.003 2.835-.004 3.134.01h3.281c3.598 0 7.197.009 10.795.016l7.462.005q8.835.005 17.668.021 11.041.017 22.083.023 19.704.016 39.408.049c4.27 8.386 4.27 8.386 5.748 12.32l.864 2.275.892 2.39.968 2.557q1.02 2.702 2.037 5.405c1.794 4.772 3.602 9.54 5.409 14.307L344 54.11a1538 1538 0 0 0 8.375 21.578c4.816 12.175 9.51 24.396 14.187 36.625l1.164 3.04Q371.866 126.175 376 137q4.466 11.688 8.937 23.375l1.115 2.912c6.251 16.337 12.571 32.647 18.908 48.951a4502 4502 0 0 1 16.34 42.674 4182 4182 0 0 0 15.221 39.7c2.156 5.55 4.301 11.103 6.444 16.658 7.003 18.15 14.022 36.295 21.097 54.418l.979 2.507a9953 9953 0 0 0 10.34 26.402q2.24 5.702 4.477 11.405 1.07 2.724 2.145 5.447 1.486 3.766 2.962 7.535l.89 2.245c1.398 3.58 2.452 6.997 3.145 10.771a202283 202283 0 0 0 99.171.056q16.494.007 32.989.021 16.982.014 33.965.017 9.514 0 19.029.012c31.55.096 31.55.096 63.091-.534l3.335-.111c22.35-.91 44.622-6.771 60.42-23.461 13.08-15.758 16.41-34.047 15-54-1.902-15.166-10.062-28.398-21.563-38.18-17.806-13.717-38.313-16.926-60.218-17.025l-4.113-.03q-5.543-.04-11.087-.068c-3.871-.022-7.743-.05-11.615-.076q-10.98-.074-21.96-.138-14.85-.091-29.7-.191c-15.581-.103-31.163-.197-46.744-.292v104H503c-.04-44.848-.04-44.848-.049-63.58q-.008-19.434-.026-38.868-.015-14.15-.02-28.301 0-7.498-.01-14.995-.01-7.05-.008-14.097 0-2.595-.006-5.19-.007-3.526-.001-7.053l-.003-3.997C503 223 503 223 504 222a250 250 0 0 1 8.997-.131l2.896-.007q4.845-.007 9.69-.004l6.918-.01q7.473-.012 14.946-.017 11.835-.01 23.669-.041l8.102-.019 2.046-.005q11.54-.027 23.08-.049l2.132-.004q17.039-.031 34.077-.04 17.517-.013 35.033-.068c6.55-.02 13.1-.032 19.65-.027q9.265.005 18.53-.037 3.381-.011 6.764 0c22.155.064 43.621-1.957 60.29-18.244L783 201l1.992-2.047C796.4 185.93 796.864 167.41 796 151c-1.626-14.16-8.345-27.503-19-37-16.063-12.155-33.805-16.108-53.545-16.205l-3.786-.03q-5.113-.038-10.226-.068-5.352-.035-10.706-.076-10.125-.074-20.25-.138-13.69-.091-27.38-.191c-14.37-.104-28.738-.197-43.107-.292v76H503c-.04-40.084-.04-40.084-.049-56.826q-.008-17.37-.026-34.74-.015-12.647-.02-25.295 0-6.7-.01-13.402-.01-6.3-.008-12.6 0-2.319-.006-4.638-.007-3.152-.001-6.305l-.003-3.572C503 13 503 13 504 12a56 56 0 0 1 4.027-.131l2.646-.012 2.94.003 3.098-.01q5.182-.01 10.366-.011l7.401-.015q10.096-.019 20.193-.024 6.32-.004 12.64-.012 17.532-.019 35.064-.026h4.546l4.564-.002h2.287q18.241-.009 36.482-.046 18.774-.035 37.549-.037 10.521.002 21.042-.025 9.938-.024 19.874-.01 3.613.002 7.226-.013C780.046 11.456 825.283 17.579 860 47l3.047 2.55c22.495 19.39 36.4 46.509 39.772 75.994 2.501 33.954-1.43 68.438-24.014 95.417A112 112 0 0 1 872 228l-1.508 1.605c-6.986 7.36-15.197 12.393-24.055 17.208l-2.108 1.167c-4.984 2.637-9.78 4.057-15.329 5.02v2l3.562.563c6.65 1.468 12.62 4.59 18.69 7.58 1.496.734 3.004 1.442 4.514 2.146 20.75 9.84 39.199 26.185 51.234 45.711l1.062 1.713C920.852 333.73 925.425 359.63 924 384l-.129 2.286c-2.385 37.667-16.436 70.4-44.871 95.714-22.964 19.058-51.562 29.499-80.5 35.25l-2.255.458c-20.428 3.78-41.098 3.576-61.78 3.524-4.353-.009-8.707-.006-13.06-.004q-11.278.001-22.555-.017c-10.87-.016-21.74-.021-32.61-.024q-26.461-.007-52.924-.036-25.685-.029-51.37-.041l-3.206-.002-15.923-.007Q476.91 521.068 411 521q-1.432-3.313-2.86-6.627c-.266-.618-.534-1.236-.81-1.873-2.529-5.88-4.734-11.851-6.893-17.875q-1.411-3.897-2.832-7.793l-.8-2.199c-5.323-14.561-10.825-29.058-16.28-43.57l-1.341-3.57-2.47-6.569C373.097 421.3 369.555 411.65 366 402l-191-1-3 10a337 337 0 0 1-2.23 6.391l-1.259 3.503-1.343 3.711q-.712 1.973-1.42 3.947-1.889 5.24-3.781 10.478-1.957 5.42-3.91 10.84-2.337 6.49-4.677 12.977a8814 8814 0 0 0-8.907 24.801l-.994 2.78c-1.793 5.014-1.793 5.014-3.582 10.03q-1.173 3.29-2.35 6.577l-1.286 3.606c-1.312 3.495-2.79 6.927-4.261 10.359H22c.67-3.35 1.231-5.896 2.436-8.972l.886-2.282.967-2.453 1.015-2.608q1.087-2.79 2.179-5.578a5500 5500 0 0 0 5.826-14.974c.395-1.02.79-2.039 1.199-3.09 3.797-9.8 7.503-19.634 11.18-29.48l4.61-12.34A6797 6797 0 0 1 62 413.438l.87-2.302a6544 6544 0 0 1 14.245-37.23c7.887-20.465 15.664-40.973 23.446-61.479q5.375-14.16 10.757-28.316l3.547-9.336q5.396-14.205 10.8-28.406l6.085-15.994 1.203-3.163a7965 7965 0 0 0 15.797-41.9c6.318-16.897 12.773-33.74 19.268-50.57 3.59-9.31 7.153-18.63 10.717-27.95a16716 16716 0 0 1 26.387-68.525l2.471-6.386q1.95-5.036 3.907-10.068l1.078-2.79c2.724-6.977 2.724-6.977 5.279-7.146M269 129l-.712 2.075a6349 6349 0 0 1-16.29 46.866q-6.301 17.902-12.545 35.824a20050 20050 0 0 1-14.89 42.61l-.775 2.207a4567 4567 0 0 1-10.155 28.621l-2.237 6.253a5421 5421 0 0 1-4.368 12.163l-1.985 5.545-.935 2.58c-.28.782-.558 1.565-.846 2.372l-.742 2.064c-.657 1.985-.657 1.985-.52 4.82h134c-1.31-5.896-2.657-11.371-4.625-17.02l-.784-2.29a2783 2783 0 0 0-2.591-7.502l-1.847-5.37a8527 8527 0 0 0-5.065-14.673l-3.348-9.684a43593 43593 0 0 0-12.726-36.764c-4.353-12.56-8.7-25.123-13.014-37.697l-.849-2.473q-2.955-8.612-5.9-17.228l-1.962-5.726A1359 1359 0 0 1 271 129z" fill="currentColor"/></svg>